# xmcd
#
# Track frame offsets: 
#        150
#        14492
#        26945
#        43210
#        56482
#        71405
#        86227
#        101085
#        117097
#        131525
#        142197
#        150357
#        161055
#        166697
#
# Disc length: 2432 seconds
#
# Revision: 2
# Processed by: cddbd v1.4PL0 Copyright (c) Steve Scherf et al.
# Submitted via: ExactAudioCopy v0.90b3
#
DISCID=bf097e0e
DTITLE=Billie Holiday - As Time Goes By
DYEAR=1937
DGENRE=Blues
TTITLE0=I Love My Man (Billie's Blues)
TTITLE1=He's Funny That Way
TTITLE2=Do Nothin' 'Till You Hear From Me
TTITLE3=My Man
TTITLE4=They Can't Take That Away From Me
TTITLE5=Embraceable You
TTITLE6=I'm Yours
TTITLE7=I'll Be Seeing You
TTITLE8=As Time Goes By
TTITLE9=Lover Come Back To Me
TTITLE10=Swing Brother Swing
TTITLE11=Detour Ahead
TTITLE12=Your Driving Me Crazy
TTITLE13=I Cover The Waterfront
EXTD=
EXTT0=B. Holiday
EXTT1=Whiting - Moret
EXTT2=Russel - Ellington - Robbins
EXTT3=Yvain - Charles - Pollock
EXTT4=G. and I. Gershwin
EXTT5=G. and I. Gershwin
EXTT6=Green - Harburg
EXTT7=Fain - Kahal
EXTT8=H. Hupfeld
EXTT9=Ramberg - Hammerstein
EXTT10=Raymond - Bishop - Williams
EXTT11=Carter - Ellis - Frigo
EXTT12=W. Donaldson
EXTT13=Green - Heyman
PLAYORDER=
